<svg xmlns="http://www.w3.org/2000/svg" width="93.791" height="111.105" id="codeigniter"><path fill="#ee4323" d="M4.8 105.26c-1.907 0-2.461-1.11-2.461-2.773a14.791 14.791 0 0 1 .155-1.838c.418-2.876 1.437-4.522 3.9-4.522 1.664 0 2.476.744 2.476 2.1v.659h1.651c.018 0 .018-.607.018-.745 0-1.975-1.2-3.849-4.143-3.849-4 0-5.651 2.175-6.257 6.439A10.94 10.94 0 0 0 0 102.4c0 2.513.989 4.8 4.524 4.8a5.654 5.654 0 0 0 5.217-2.922l-1.578-1.062A3.7 3.7 0 0 1 4.8 105.26Zm10.834-7.939c-3.207 0-4.593 1.646-5.061 4.921a8.546 8.546 0 0 0-.088 1.145c0 2.114.988 3.8 3.726 3.8 3.207 0 4.612-1.716 5.079-4.941a9.426 9.426 0 0 0 .087-1.178c0-2.149-1.021-3.743-3.744-3.743Zm1.335 4.922c-.347 2.375-1.091 3.1-2.5 3.1-1.126 0-1.68-.468-1.68-1.872a8.672 8.672 0 0 1 .1-1.231c.347-2.357 1.04-3.085 2.461-3.085 1.144 0 1.715.468 1.715 1.889a8.028 8.028 0 0 1-.1 1.2ZM27.44 94.46l-.54 3.182c-.034.277-.017.185.088.445a3.829 3.829 0 0 0-2.011-.633c-2.877 0-4.489 1.3-5.008 4.942a7.112 7.112 0 0 0-.087 1.162c0 2.653 1.56 3.642 3.656 3.642a3.532 3.532 0 0 0 2.426-.553l.173 1.078H27.8l1.946-13.265H27.44Zm-1.646 10.384a3.978 3.978 0 0 1-2.009.572c-1.265 0-1.612-.659-1.612-1.716a10.416 10.416 0 0 1 .122-1.37c.4-2.755 1.282-3.242 2.426-3.242a3.666 3.666 0 0 1 1.855.417l-.782 5.338Zm9.014-7.522c-3.173 0-4.662 1.507-5.165 4.921a9.6 9.6 0 0 0-.088 1.2c0 2.34 1.2 3.744 3.83 3.744a4.618 4.618 0 0 0 4.386-2.41l-1.751-.711a2.6 2.6 0 0 1-2.374 1.282c-1.282 0-1.8-.345-1.8-1.489a1.691 1.691 0 0 1 .052-.554h6.256c.088-.884.191-1.509.191-2.028 0-1.732-.658-3.953-3.535-3.953Zm1.2 4.213H32.19c.382-.884 1.022-2.253 2.34-2.253a1.413 1.413 0 0 1 1.526 1.62 2.666 2.666 0 0 1-.056.633Zm9.009-4.422.208-1.768h-4.893l-.207 1.768h1.282l-1.386 8.843h-1.284l-.207 1.769h4.887l.209-1.769h-1.283l1.386-8.843Zm9.932 2.653.62-1.766h-1.681l-1.212.25a4.8 4.8 0 0 0-2.461-.757c-2.48 0-4.593 1.2-4.593 3.919a2.9 2.9 0 0 0 .606 1.8 1.613 1.613 0 0 0-.97 1.365 1.309 1.309 0 0 0 .312.82 3.314 3.314 0 0 0-1.68 2.873c0 2.341 2.443 2.84 4.315 2.84 2.357 0 5.165-.539 5.165-3.537 0-1.022-.641-1.821-2.5-2.167l-3.345-.625c-.381-.07-.468-.191-.468-.365a.37.37 0 0 1 .416-.4l.226.034a6.849 6.849 0 0 0 1.508.156c2.41 0 4.559-1.04 4.559-3.744a2.455 2.455 0 0 0-.242-1.057 3.768 3.768 0 0 0 .831.365h.586Zm-4.765 7.175c.658.122.883.364.883.8 0 1.4-1.508 1.578-2.6 1.578-1.664 0-2.288-.4-2.288-1.283a2.128 2.128 0 0 1 .746-1.7Zm-.712-4.54c-1.005 0-1.56-.363-1.56-1.231a1.857 1.857 0 0 1 2.045-2.028c1.04 0 1.543.433 1.543 1.282a1.807 1.807 0 0 1-2.033 1.976ZM61.1 97.322a4.767 4.767 0 0 0-2.912 1.325L58.035 98h-1.908l-1.334 9.727H57.1l1.006-7.377a5.13 5.13 0 0 1 2.218-1.02c.866 0 1.179.418 1.179 1.215a9.189 9.189 0 0 1-.053.964l-.848 6.217h2.306l.848-6.268c.035-.293.07-.776.07-1.053 0-1.649-.78-3.082-2.721-3.082Zm7.1 7.966.018-.238 1-7.052h-3.824l-.241 1.768h1.68c-.139 0-.225.155-.242.295l-.694 4.7a8.133 8.133 0 0 0-.051.886 1.878 1.878 0 0 0 2.009 2.082h1.179l.26-1.769h-.745c-.261-.004-.349-.46-.349-.672Zm1.49-10.828h-2.251c-.139 0-.139-.51-.156-.337l-.313 2.492c-.018.157-.018.5.121.5h2.254c.139 0 .139-.606.156-.764l.313-1.923c.018-.173.018.034-.122.034Zm4.7 10.887c-.571 0-.849-.243-.849-.762l.018-.036.728-4.783h2.634l.8-1.768h-3.189l.537-3.892-2.425.776L72.209 98h-1.4l-.242 1.768h1.629c-.156.884-.312.311-.329.485l-.624 4.194a2.559 2.559 0 0 0-.034.5c0 1.647 1.213 2.263 2.67 2.263a4.965 4.965 0 0 0 3.293-1.106l-1.075-1.323a2.782 2.782 0 0 1-1.7.566Zm8.458-8.025c-3.172 0-4.662 1.507-5.165 4.921a9.732 9.732 0 0 0-.087 1.2c0 2.34 1.2 3.744 3.83 3.744a4.616 4.616 0 0 0 4.385-2.41l-1.75-.711a2.6 2.6 0 0 1-2.375 1.282c-1.282 0-1.8-.345-1.8-1.489a1.679 1.679 0 0 1 .053-.554H86.2c.086-.884.191-1.509.191-2.028 0-1.732-.658-3.953-3.536-3.953Zm1.2 4.213h-3.813c.381-.884 1.021-2.253 2.34-2.253A1.413 1.413 0 0 1 84.1 100.9a2.726 2.726 0 0 1-.052.633Zm8.719-4.213a3.612 3.612 0 0 0-2.392 1.221L90.236 98H88.33L87 107.725h2.323l1.022-7.533a4.037 4.037 0 0 1 1.959-.673 9.309 9.309 0 0 1 1.2-.015l.3-2.01a5.535 5.535 0 0 0-1.024-.173ZM33.9 87.493c-5.246-2.268-10.156-8.032-10.168-13.929-.014-6.43 4.06-11.889 9.128-15.476-.609 2.3-.942 4.407.568 6.466a6.113 6.113 0 0 0 6.181 2.34c5.422-1.187 5.671-7.148 2.457-10.621-3.178-3.439-6.253-7.324-5.043-12.311a12.826 12.826 0 0 1 4.085-6.516c-1.495 3.928 2.753 7.8 5.552 9.732 4.855 3.348 10.181 5.878 14.645 9.8 4.7 4.125 8.163 9.7 7.463 16.17-.759 7.011-6.33 11.887-12.579 14.349 13.2-2.914 26.849-13.163 27.128-27.808.232-12.048-8.033-21.32-18.272-26.629l-.535-.292a4.359 4.359 0 0 1 .362 1.781 6.228 6.228 0 0 0 .171-1.182 5.762 5.762 0 0 1-.188 1.429l.016-.247a6 6 0 0 1-.758 1.807l.15-.162a6.426 6.426 0 0 1-10.3.616c-4.391-5.643.092-11.727.719-17.7.789-7.489-3.908-14.759-9.731-19.11 3.207 5.188-1.018 12.052-4.4 15.889-3.278 3.72-7.264 6.825-10.883 10.205A90.712 90.712 0 0 0 18.85 37.809c-6.39 8.528-10.3 19.253-7.427 29.891S23.5 85.1 33.9 87.493Z"></path></svg>